<?xml version="1.0" encoding="UTF-8"?>
<svg id="Layer_2" data-name="Layer 2" xmlns="http://www.w3.org/2000/svg" xmlns:xlink="http://www.w3.org/1999/xlink" viewBox="0 0 1188.51 1374.23">
  <defs>
    <style>
      .cls-1 {
        fill: url(#linear-gradient);
      }
    </style>
    <linearGradient id="linear-gradient" x1="594.26" y1="1371.6" x2="594.26" y2="-2.64" gradientTransform="translate(0 1371.6) scale(1 -1)" gradientUnits="userSpaceOnUse">
      <stop offset="0" stop-color="#8f85ff"/>
      <stop offset="1" stop-color="#6b5dff"/>
    </linearGradient>
  </defs>
  <g id="Layer_1-2" data-name="Layer 1">
    <path class="cls-1" d="M303.52,256.7l46.65-47.29L150.26,9.5c-13-12.67-33.84-12.67-46.5,0-13.15,13.15-13.15,34.48,0,47.3l199.76,199.91ZM1088.68,994.39l-45.04-46.05c-102.92,103.9-245.97,166.48-406.1,166.48-319.6,0-571.4-251.31-571.4-571.06,0-159.8,63.56-303.18,165.81-405.59l-46.57-44.85C70.53,208.21,0,367.11,0,543.77c0,353.39,283.81,637.05,637.54,637.05,177.18,0,336.08-70.71,451.14-186.42ZM968.98,828.22l-49.32,44.82,212.33,212.48c13.15,12.82,33.84,12.82,46.65,0,13.16-13.15,13.16-34.14,0-47.29l-209.66-210.01ZM604.22,1164.15v164.65h66.14v-164.65h-66.14ZM432.06,1374.23h414.91c18.33,0,33.16-14.99,33.16-32.98s-14.84-33.16-33.16-33.16h-414.91c-18.32,0-33.32,14.84-33.32,33.16s14.99,32.98,33.32,32.98ZM637.54,1005.22c255.22,0,461.79-206.24,461.79-461.46S892.76,81.97,637.54,81.97s-461.8,206.24-461.8,461.8,206.58,461.46,461.8,461.46Z"/>
  </g>
</svg>