<?xml version="1.0" encoding="UTF-8"?>
<!--Generator: Apple Native CoreSVG 341-->
<!DOCTYPE svg
PUBLIC "-//W3C//DTD SVG 1.1//EN"
       "http://www.w3.org/Graphics/SVG/1.1/DTD/svg11.dtd">
<svg version="1.1" xmlns="http://www.w3.org/2000/svg" xmlns:xlink="http://www.w3.org/1999/xlink" viewBox="0 0 1188.56 1375.38">
 <defs>
  <linearGradient id="gradient1" x1="5" y1="1.14502" x2="5" y2="1375.38" gradientUnits="userSpaceOnUse">
   <stop offset="0" stop-color="#8f85ff" stop-opacity="1"/>
   <stop offset="1" stop-color="#6b5dff" stop-opacity="1"/>
  </linearGradient>
 </defs>
 <g>
  <rect height="1375.38" opacity="0" width="1188.56" x="0" y="0"/>
  <path d="M303.562 257.847L350.217 210.552L150.31 10.6446C137.307-2.02149 116.472-2.02149 103.806 10.6446C90.6519 23.7989 90.6519 45.1222 103.806 57.9396ZM1088.73 995.537L1043.69 949.487C940.769 1053.39 797.722 1115.97 637.586 1115.97C317.986 1115.97 66.1891 864.663 66.1891 544.912C66.1891 385.112 129.749 241.729 232 139.326L185.427 94.4726C70.5786 209.355 0.0463873 368.252 0.0463873 544.912C0.0463873 898.301 283.86 1181.96 637.586 1181.96C814.768 1181.96 973.665 1111.25 1088.73 995.537ZM969.031 829.365L919.714 874.185L1132.04 1086.66C1145.19 1099.48 1165.88 1099.48 1178.69 1086.66C1191.85 1073.51 1191.85 1052.52 1178.69 1039.37ZM604.27 1165.29L604.27 1329.94L670.413 1329.94L670.413 1165.29ZM432.107 1375.38L847.019 1375.38C865.344 1375.38 880.183 1360.39 880.183 1342.4C880.183 1324.08 865.344 1309.24 847.019 1309.24L432.107 1309.24C413.782 1309.24 398.791 1324.08 398.791 1342.4C398.791 1360.39 413.782 1375.38 432.107 1375.38ZM637.586 1006.37C892.805 1006.37 1099.38 800.132 1099.38 544.912C1099.38 289.356 892.805 83.1153 637.586 83.1153C382.366 83.1153 175.789 289.356 175.789 544.912C175.789 800.132 382.366 1006.37 637.586 1006.37Z" fill="url(#gradient1)"/>
 </g>
</svg>
